 <svg  version="1.0" xmlns="http://www.w3.org/2000/svg"  width="300.000000pt" height="300.000000pt" viewBox="0 0 300.000000 300.000000"  preserveAspectRatio="xMidYMid meet">  <g transform="translate(0.000000,300.000000) scale(0.100000,-0.100000)" fill="#ffffff" stroke="none"> <path d="M1390 2690 l0 -40 -45 0 c-45 0 -45 0 -45 -35 0 -35 0 -35 45 -35 l45 0 0 -110 0 -110 43 0 42 0 -3 110 -3 110 50 0 51 0 0 35 0 35 -51 0 -51 0 4 40 4 40 -43 0 -43 0 0 -40z m64 -45 c20 -31 20 -42 -2 -70 l-18 -23 -22 23 c-27 28 -27 39 -4 70 22 31 26 31 46 0z"/> <path d="M1255 2279 c-46 -11 -127 -40 -122 -45 1 -2 32 6 67 17 36 11 75 18 87 16 12 -2 20 0 17 4 -3 5 9 9 25 9 31 0 44 -23 19 -33 -9 -4 -8 -6 2 -6 17 -1 60 26 60 37 0 11 -110 11 -155 1z"/> <path d="M1420 2276 c-16 -16 -12 -26 10 -26 23 0 92 -45 83 -54 -7 -7 19 -34 60 -61 33 -21 41 -16 28 17 -7 19 -5 27 10 36 10 7 19 16 19 20 0 9 -69 45 -108 57 -13 4 -21 9 -18 12 3 3 39 -2 81 -12 61 -13 75 -20 71 -32 -5 -13 -4 -14 8 -3 13 10 26 5 76 -25 33 -20 60 -41 60 -46 0 -5 12 -15 28 -22 15 -6 31 -17 35 -24 5 -8 12 -11 18 -8 5 4 9 -4 9 -16 0 -18 -3 -19 -15 -9 -8 6 -20 8 -27 4 -7 -4 -10 -4 -6 1 8 9 -9 35 -23 35 -14 0 7 -45 22 -46 25 -2 49 -16 49 -29 0 -7 7 -15 15 -19 8 -3 15 -12 15 -20 0 -10 -6 -13 -15 -10 -11 4 -13 2 -10 -9 5 -12 -2 -11 -47 4 -66 22 -219 49 -287 50 -45 1 -49 3 -34 15 17 12 17 13 -2 20 -11 4 -30 16 -42 27 -12 10 -27 16 -33 12 -6 -4 -19 0 -28 8 -30 25 -50 27 -55 6 -3 -10 0 -22 5 -26 7 -4 6 -10 -3 -17 -15 -12 -22 -46 -8 -46 4 0 16 14 26 30 18 32 28 37 38 20 4 -6 9 -8 13 -6 11 7 45 -22 38 -32 -3 -5 -39 -12 -80 -15 -90 -8 -174 -38 -207 -74 l-24 -27 33 27 c37 30 103 52 186 62 39 5 56 4 56 -4 0 -6 -7 -11 -15 -11 -9 0 -40 -25 -70 -55 -39 -39 -63 -55 -83 -56 -67 -1 -95 -8 -118 -30 -13 -12 -24 -31 -24 -41 0 -24 -8 -23 -30 5 -24 29 -33 19 -18 -21 12 -31 33 -44 123 -72 22 -7 53 -23 68 -36 31 -26 36 -28 64 -17 15 6 13 8 -12 13 -21 4 -30 11 -30 25 0 14 -9 21 -27 25 -22 4 -25 8 -18 20 14 21 12 30 -5 30 -9 0 -18 -7 -21 -15 -7 -18 -35 -20 -52 -3 -18 18 -15 66 6 76 9 5 40 9 68 10 44 2 52 -1 57 -18 8 -31 27 -24 21 8 -5 23 -1 30 21 40 17 8 25 18 22 27 -4 9 5 19 24 27 16 7 29 18 29 24 0 7 9 14 20 17 11 3 20 1 20 -3 0 -10 38 -1 46 11 3 5 -1 6 -9 3 -8 -3 -20 3 -28 12 -13 16 -10 17 36 10 28 -5 59 -8 70 -7 31 1 169 -28 238 -51 199 -65 340 -181 300 -247 -5 -9 -32 -27 -59 -41 -41 -20 -55 -34 -72 -71 -12 -26 -51 -78 -87 -117 -51 -55 -82 -78 -147 -110 -117 -57 -192 -75 -323 -75 -172 -1 -285 35 -425 134 -41 29 -83 55 -93 56 -36 6 -77 34 -83 58 -11 44 16 97 87 168 69 69 89 80 89 50 0 -10 12 1 27 27 15 25 35 54 45 64 21 23 23 37 6 31 -7 -2 -26 -6 -43 -8 -80 -12 -106 -20 -97 -29 7 -7 -12 -31 -54 -71 -99 -92 -121 -170 -70 -247 22 -33 96 -80 127 -80 6 0 32 -15 58 -34 63 -46 133 -80 221 -107 62 -20 96 -24 200 -23 142 0 213 15 328 70 80 39 195 139 227 198 11 21 34 41 55 51 46 21 88 59 101 92 21 56 -13 137 -78 183 -19 14 -44 33 -54 43 -10 9 -26 17 -34 17 -19 0 -29 24 -20 48 6 15 11 12 36 -18 37 -44 37 -27 0 31 -69 110 -200 209 -331 250 -71 22 -213 32 -230 15z"/> <path d="M1325 2227 c23 -35 10 -50 -15 -17 -10 14 -22 21 -26 17 -4 -4 -2 -7 4 -7 6 0 9 -7 5 -15 -3 -9 -7 -14 -10 -12 -2 3 -19 1 -38 -3 -25 -6 -38 -4 -46 6 -6 8 -26 14 -44 14 -19 0 -35 5 -37 10 -5 16 -127 -60 -179 -111 -91 -89 -139 -199 -139 -315 0 -37 2 -65 4 -63 4 4 13 99 15 153 1 19 1 19 24 0 l22 -19 -18 22 c-18 21 -16 70 3 58 4 -3 6 3 3 14 -7 28 11 33 38 12 13 -10 35 -21 49 -25 22 -6 21 -5 -5 10 -53 29 -66 44 -54 66 10 18 11 18 36 -2 14 -11 31 -20 37 -20 6 0 -4 9 -21 20 -37 22 -40 32 -18 50 13 10 19 9 38 -6 l22 -19 -19 23 c-20 23 -20 23 8 48 43 41 69 19 46 -40 -7 -18 -6 -25 2 -23 6 1 13 -4 16 -12 2 -8 0 -11 -5 -8 -11 7 -43 -54 -43 -82 0 -17 29 -51 43 -51 3 0 1 14 -5 30 -8 24 -7 38 7 67 10 20 19 63 21 96 2 34 7 64 12 67 24 20 62 25 119 17 l61 -9 -5 -33 c-5 -30 -2 -35 37 -60 62 -39 72 -42 62 -14 -5 13 -23 28 -43 34 -44 15 -43 32 3 61 31 20 36 21 31 6 -3 -9 -3 -14 2 -10 4 4 15 2 24 -5 14 -11 14 -10 2 6 -10 13 -11 20 -2 30 6 8 8 17 4 20 -10 11 16 8 37 -3 11 -6 17 -17 14 -24 -3 -8 3 -19 14 -25 23 -12 36 -3 21 15 -8 9 -5 11 10 7 12 -3 21 -1 21 3 -1 12 -69 45 -105 51 -16 3 -36 10 -44 16 -9 8 -8 1 4 -16z"/> <path d="M1206 2232 c-8 -13 8 -29 29 -29 24 0 38 19 22 29 -16 10 -45 10 -51 0z"/> <path d="M1511 1968 c-1 -21 -6 -28 -21 -28 -11 0 -20 6 -20 13 0 9 -2 9 -8 1 -4 -7 -18 -14 -32 -17 -25 -4 -25 -4 3 -6 20 -1 27 -6 27 -21 0 -17 -7 -20 -42 -21 -24 -1 -35 -3 -25 -6 9 -2 17 -13 17 -24 0 -14 -8 -19 -32 -20 l-33 -2 30 -4 c16 -3 33 -10 37 -16 6 -9 8 -9 8 0 0 16 100 16 100 0 0 -9 2 -9 8 -1 4 6 14 14 22 17 12 4 11 6 -2 6 -20 1 -25 41 -5 41 8 0 9 3 1 8 -6 4 -14 14 -17 22 -4 12 -6 11 -6 -2 -1 -27 -51 -25 -51 2 0 17 7 20 43 21 23 1 34 3 25 6 -9 2 -19 16 -21 31 l-4 27 -2 -27z m-51 -108 c0 -13 -7 -20 -20 -20 -13 0 -20 7 -20 20 0 13 7 20 20 20 13 0 20 -7 20 -20z m60 0 c0 -15 -7 -20 -25 -20 -18 0 -25 5 -25 20 0 15 7 20 25 20 18 0 25 -5 25 -20z"/> <path d="M1567 1945 c3 -27 7 -65 8 -83 3 -46 15 -53 15 -9 0 30 4 37 19 37 10 0 22 -7 25 -16 8 -22 8 -22 -16 -27 l-23 -4 23 -2 c24 -1 32 -35 10 -44 -8 -3 -6 -6 5 -6 14 -1 17 -10 17 -50 0 -43 -3 -50 -22 -54 l-23 -4 23 -2 c13 0 22 -8 23 -18 0 -15 2 -15 9 2 4 11 5 32 3 48 -5 24 -2 27 21 27 19 0 26 -5 26 -19 0 -11 -8 -22 -17 -24 -17 -4 -17 -5 0 -6 12 -1 17 -9 17 -29 l0 -29 72 14 c58 11 73 11 80 1 6 -10 8 -8 8 4 0 9 10 19 23 21 22 4 22 4 -2 6 -19 1 -23 5 -19 26 3 14 1 28 -3 31 -5 3 -9 0 -9 -5 0 -6 -7 -11 -15 -11 -8 0 -15 5 -15 12 0 6 -3 8 -7 4 -4 -4 -6 -22 -5 -41 2 -29 -1 -35 -16 -35 -11 0 -34 -3 -51 -6 -27 -6 -31 -4 -31 14 0 11 8 23 18 25 16 4 16 5 0 6 -13 1 -17 9 -16 36 1 19 -2 38 -5 42 -4 3 -7 -1 -7 -10 0 -11 -8 -17 -25 -17 -18 0 -25 5 -25 19 0 14 10 20 38 25 56 9 62 8 62 -13 0 -11 -6 -22 -12 -24 -22 -9 35 -7 74 2 26 6 39 5 42 -3 2 -6 5 -3 5 7 1 14 -4 16 -24 11 -21 -5 -25 -3 -25 15 0 13 9 26 23 32 21 9 21 9 -3 4 -14 -2 -32 -5 -40 -5 -12 0 -12 -2 -2 -9 19 -12 11 -45 -12 -49 -15 -3 -18 1 -14 22 3 15 1 29 -3 32 -5 3 -9 13 -9 23 0 10 -7 42 -17 70 -13 40 -20 51 -37 50 -15 0 -17 -2 -6 -6 32 -13 39 -43 10 -43 -13 0 -22 9 -26 25 -4 14 -8 24 -10 22 -3 -2 2 -33 11 -68 20 -85 19 -89 -10 -89 -18 0 -25 5 -25 20 0 12 7 20 18 21 13 0 14 2 2 6 -30 12 -40 43 -13 43 9 0 13 3 10 7 -4 3 -24 6 -45 5 -38 -2 -39 -1 -50 46 l-11 47 6 -50z m173 -65 c0 -13 -7 -20 -19 -20 -10 0 -21 9 -24 20 -4 16 0 20 19 20 17 0 24 -6 24 -20z m13 -50 c4 -16 0 -20 -19 -20 -17 0 -24 6 -24 20 0 13 7 20 19 20 10 0 21 -9 24 -20z m107 -140 c0 -11 -7 -20 -15 -20 -8 0 -15 9 -15 20 0 11 7 20 15 20 8 0 15 -9 15 -20z"/> <path d="M1930 1897 c0 -7 -9 -31 -19 -53 -14 -27 -16 -44 -10 -57 6 -9 7 -22 4 -28 -10 -15 24 -79 41 -79 8 0 24 4 34 10 14 7 20 6 25 -8 6 -14 10 -12 21 13 15 34 19 155 5 155 -12 0 -21 -36 -21 -83 0 -31 -4 -39 -27 -48 -32 -12 -40 -3 -49 59 -4 27 -2 48 5 55 14 14 15 64 1 72 -5 3 -10 0 -10 -8z"/> <path d="M1284 1802 c4 -6 13 -9 20 -6 8 3 17 1 21 -5 3 -6 21 -11 38 -11 25 1 28 3 16 10 -26 15 -103 25 -95 12z"/> <path d="M1500 1792 c-19 -2 -40 -8 -45 -12 -6 -5 -21 -7 -33 -3 -12 3 -22 1 -22 -5 0 -5 18 -12 40 -14 28 -2 40 0 40 9 0 7 11 13 25 13 18 0 25 -5 25 -20 0 -11 -5 -20 -12 -20 -6 0 -8 -3 -4 -7 4 -4 22 -6 41 -5 25 2 35 -2 38 -15 4 -16 5 -16 6 -1 0 9 11 19 24 21 l22 4 -22 2 c-18 1 -23 7 -23 29 0 29 -12 32 -100 24z m90 -32 c0 -15 -7 -20 -25 -20 -18 0 -25 5 -25 20 0 15 7 20 25 20 18 0 25 -5 25 -20z"/> <path d="M1060 1735 c0 -27 -24 -34 -37 -11 -7 12 -10 12 -21 0 -7 -8 -8 -14 -2 -14 5 0 10 -9 10 -21 0 -22 -8 -22 -74 -2 -12 3 -16 1 -12 -6 4 -6 16 -11 27 -11 12 0 19 -7 19 -20 0 -11 -7 -20 -15 -20 -8 0 -15 5 -15 11 0 5 -5 7 -12 3 -14 -9 35 -33 69 -34 12 0 24 -8 26 -17 4 -14 5 -12 6 5 1 17 -4 22 -24 22 -18 0 -25 5 -25 20 0 25 30 27 31 3 0 -11 3 -13 6 -5 7 18 41 15 46 -5 5 -19 11 58 7 91 -1 10 4 23 12 27 10 7 9 9 -4 9 -13 0 -18 -8 -18 -25z m0 -56 c0 -12 -7 -19 -20 -19 -14 0 -20 7 -20 24 0 19 4 23 20 19 11 -3 20 -14 20 -24z"/> <path d="M1111 1718 c0 -9 -7 -19 -13 -21 -10 -4 -10 -6 0 -6 6 -1 12 -10 12 -20 0 -11 -6 -22 -12 -24 -10 -4 -10 -6 0 -6 6 -1 12 -10 12 -20 0 -11 -6 -22 -12 -24 -8 -3 -6 -6 5 -6 11 -1 17 -9 17 -26 0 -21 5 -25 30 -25 17 0 30 -5 30 -12 0 -7 3 -23 6 -35 5 -19 2 -23 -15 -23 -11 0 -21 5 -21 12 0 6 -2 9 -5 6 -13 -13 8 -35 29 -31 19 4 25 -1 30 -21 4 -16 11 -24 17 -20 7 4 7 9 2 13 -5 3 -15 28 -23 54 -11 42 -11 50 1 58 9 6 0 9 -28 9 -36 0 -43 3 -43 19 0 11 8 22 18 24 13 4 11 5 -5 6 -28 1 -32 37 -5 44 16 4 16 5 0 6 -11 1 -18 9 -18 21 0 15 7 20 26 20 22 0 25 -4 24 -27 -3 -46 1 -109 7 -95 2 6 15 12 28 12 20 0 24 -6 28 -37 l4 -38 1 37 c1 25 7 38 20 41 9 3 -4 5 -30 6 -41 1 -48 4 -48 21 0 17 7 20 43 21 23 1 34 3 25 6 -9 2 -19 12 -21 21 -4 15 -5 15 -6 0 -2 -26 -41 -24 -41 2 0 17 7 20 43 21 33 1 27 4 -30 11 -53 7 -73 14 -76 26 -4 16 -5 16 -6 0z"/> <path d="M1367 1692 c-10 -10 -14 -22 -10 -25 3 -4 -2 -16 -12 -27 -11 -12 -20 -28 -21 -37 -4 -22 35 -72 70 -90 27 -14 28 -17 21 -61 -4 -26 -11 -52 -15 -57 -12 -15 -7 -68 7 -72 6 -2 14 6 18 17 4 12 22 28 41 36 19 8 34 19 34 26 0 6 3 9 6 5 9 -8 55 16 78 42 11 12 29 21 41 21 20 0 65 37 65 54 0 5 11 17 25 28 28 22 33 47 10 49 -8 1 -23 2 -32 3 -10 1 -23 4 -29 8 -6 4 -21 5 -33 3 -18 -3 -21 -1 -17 12 9 23 -12 43 -45 43 -16 0 -29 5 -29 10 0 6 -7 10 -15 10 -8 0 -15 3 -15 8 0 11 -84 10 -92 -2 -5 -8 -8 -7 -8 2 0 18 -24 15 -43 -6z m139 -30 c12 -6 24 -8 28 -5 3 3 6 1 6 -5 0 -7 9 -12 20 -12 11 0 23 -6 26 -14 3 -8 25 -24 50 -35 24 -12 44 -25 44 -30 0 -13 -48 -61 -60 -61 -6 0 -27 -12 -46 -27 -30 -23 -127 -73 -141 -73 -2 0 -2 4 1 8 24 39 7 122 -28 135 -8 3 -22 18 -32 32 -17 26 -13 48 18 91 10 14 87 11 114 -4z"/> <path d="M1810 1628 c0 -21 -36 -25 -43 -5 -3 6 -6 -1 -6 -18 -1 -21 2 -26 8 -16 5 8 18 12 30 8 12 -3 21 -1 21 4 0 14 28 11 33 -3 3 -8 6 -6 6 5 1 20 27 23 34 5 3 -8 6 -6 6 5 1 9 6 17 13 17 6 0 9 2 7 4 -3 3 -24 0 -48 -6 -35 -9 -45 -8 -52 3 -7 11 -9 11 -9 -3z"/> <path d="M859 1584 c11 -22 27 -47 37 -55 17 -13 17 -12 0 17 -10 17 -27 41 -38 55 -19 23 -19 23 1 -17z"/> <path d="M1053 1603 c10 -3 17 -14 17 -29 0 -19 5 -24 23 -23 16 1 18 2 5 6 -11 3 -18 14 -18 29 0 19 -5 24 -22 23 -17 -1 -19 -2 -5 -6z"/> <path d="M1823 1536 c-95 -24 -114 -40 -23 -20 67 16 110 31 110 39 0 3 -1 4 -2 3 -2 0 -40 -10 -85 -22z"/> <path d="M952 1546 c10 -12 98 -36 98 -27 0 5 -16 12 -36 15 -19 4 -43 10 -52 13 -9 3 -14 3 -10 -1z"/> <path d="M1270 1539 c-24 -7 -24 -7 -2 -8 12 -1 22 -7 22 -16 0 -11 -11 -15 -37 -15 -21 0 -33 -4 -27 -8 6 -4 16 -28 24 -55 7 -26 17 -50 22 -54 9 -5 6 14 -9 55 -3 7 3 12 15 12 15 0 21 -9 27 -36 3 -20 9 -34 11 -31 3 3 2 21 -1 41 -6 31 -11 36 -36 36 -20 0 -29 5 -29 16 0 12 7 15 24 12 14 -3 31 -1 38 3 10 7 10 9 1 9 -16 0 -17 27 -1 32 23 8 -17 15 -42 7z"/> <path d="M423 1128 c2 -7 14 -12 26 -11 19 3 21 -2 21 -57 0 -48 3 -60 16 -60 13 0 15 11 13 58 -3 52 -1 57 19 60 46 7 19 22 -39 22 -44 0 -59 -3 -56 -12z"/> <path d="M560 1070 c0 -57 3 -70 16 -70 12 0 14 7 9 28 -4 20 -1 33 9 41 22 18 36 5 36 -35 0 -23 5 -34 14 -34 11 0 13 9 10 38 -9 62 -11 65 -45 58 -29 -6 -31 -4 -25 19 5 18 2 25 -9 25 -12 0 -15 -14 -15 -70z"/> <path d="M844 1123 c39 -121 69 -154 82 -89 9 51 21 53 35 6 7 -22 17 -40 24 -40 11 0 68 131 60 138 -13 13 -34 -13 -45 -55 l-13 -48 -16 53 c-9 28 -21 52 -27 52 -6 0 -17 -20 -23 -45 -6 -25 -15 -45 -19 -45 -4 0 -13 20 -20 45 -8 29 -17 45 -28 45 -10 0 -13 -6 -10 -17z"/> <path d="M1170 1070 c0 -56 3 -70 15 -70 12 0 15 14 15 70 0 56 -3 70 -15 70 -12 0 -15 -14 -15 -70z"/> <path d="M1220 1070 c0 -56 3 -70 15 -70 12 0 15 14 15 70 0 56 -3 70 -15 70 -12 0 -15 -14 -15 -70z"/> <path d="M2063 1123 c-4 -10 -11 -21 -17 -25 -8 -5 -7 -11 2 -20 6 -6 12 -27 12 -45 0 -18 5 -33 10 -33 6 0 10 18 10 41 0 32 3 40 15 35 9 -3 15 0 15 9 0 8 -7 15 -15 15 -8 0 -15 5 -15 10 0 6 9 10 20 10 11 0 20 5 20 10 0 18 -50 11 -57 -7z"/> <path d="M2230 1124 c0 -11 6 -14 20 -9 18 6 20 2 20 -39 0 -37 -4 -46 -22 -52 -16 -5 -27 -1 -39 15 -17 21 -39 28 -39 13 0 -25 34 -52 64 -52 47 0 66 26 66 88 l0 52 -35 0 c-25 0 -35 -4 -35 -16z"/> <path d="M1818 1103 c-35 -5 -50 -25 -46 -60 2 -22 10 -30 36 -38 34 -10 43 -32 17 -41 -8 -4 -22 -1 -30 6 -22 19 -41 7 -21 -13 34 -33 107 -7 90 32 -6 16 -7 23 -3 51 4 29 -1 70 -8 69 -5 -1 -20 -4 -35 -6z m20 -47 c4 -21 -14 -37 -35 -29 -14 5 -18 35 -6 47 12 12 38 1 41 -18z"/> <path d="M692 1088 c-17 -17 -15 -63 2 -77 17 -14 67 -11 66 4 -1 6 -12 9 -25 7 -12 -2 -26 2 -30 7 -4 7 8 11 34 11 42 0 48 8 31 41 -12 22 -59 26 -78 7z"/> <path d="M1062 1088 c-17 -17 -15 -63 2 -77 17 -14 67 -11 66 4 -1 6 -12 9 -25 7 -12 -2 -26 2 -30 7 -4 7 8 11 34 11 33 0 41 4 41 18 0 10 -5 23 -12 30 -15 15 -61 15 -76 0z"/> <path d="M1280 1086 c-16 -20 2 -46 31 -46 11 0 19 -5 19 -11 0 -7 -11 -9 -31 -5 -22 4 -29 2 -27 -7 7 -18 63 -21 78 -3 16 20 -2 46 -31 46 -11 0 -19 5 -19 11 0 5 8 9 18 7 11 -2 20 2 21 7 3 17 -45 17 -59 1z"/> <path d="M1380 1044 c0 -29 -3 -59 -6 -68 -4 -11 -1 -16 10 -16 10 0 16 9 16 24 0 19 4 22 25 18 33 -6 55 14 55 48 0 36 -18 50 -63 48 l-37 -1 0 -53z m74 13 c14 -22 -5 -41 -33 -32 -23 7 -27 25 -9 43 15 15 28 11 42 -11z"/> <path d="M1509 1096 c0 -1 -1 -22 -2 -48 -2 -34 1 -48 10 -48 8 0 13 13 13 35 0 33 7 40 38 36 6 -1 12 5 12 13 0 11 -10 15 -35 14 -19 -1 -35 -2 -36 -2z"/> <path d="M1600 1050 c0 -27 5 -50 10 -50 6 0 10 23 10 50 0 28 -4 50 -10 50 -5 0 -10 -22 -10 -50z"/> <path d="M1650 1048 c0 -26 5 -48 10 -48 6 0 10 13 10 29 0 31 22 57 40 46 5 -3 10 -22 10 -41 0 -25 4 -34 16 -34 14 0 16 8 11 41 -6 48 -19 59 -64 57 -33 -1 -33 -2 -33 -50z"/> <path d="M1942 1088 c-17 -17 -15 -63 2 -77 46 -38 111 25 71 69 -20 22 -55 26 -73 8z m53 -39 c0 -15 -7 -25 -18 -27 -22 -4 -33 24 -17 43 18 21 35 13 35 -16z"/> <path d="M2336 1084 c-32 -31 -11 -84 32 -84 35 0 52 16 52 50 0 14 -5 31 -12 38 -17 17 -54 15 -72 -4z m54 -19 c25 -30 -10 -61 -38 -33 -7 7 -8 17 -1 30 12 22 23 23 39 3z"/> <path d="M2451 1054 c17 -37 19 -51 10 -70 -9 -20 -8 -24 7 -24 12 0 25 19 42 62 14 35 27 66 28 70 2 5 -3 8 -11 8 -9 0 -21 -16 -28 -37 l-12 -38 -12 35 c-6 19 -19 36 -28 38 -14 3 -14 -2 4 -44z"/> <path d="M1795 865 c-19 -18 -24 -31 -20 -48 15 -49 73 -63 99 -25 28 39 14 79 -31 93 -17 4 -30 -1 -48 -20z m69 -17 c23 -38 -35 -78 -61 -42 -17 23 -16 29 3 49 20 19 43 16 58 -7z"/> <path d="M600 825 c0 -30 5 -55 10 -55 6 0 10 25 10 55 0 30 -4 55 -10 55 -5 0 -10 -25 -10 -55z"/> <path d="M680 825 c0 -30 5 -55 10 -55 6 0 10 19 10 42 l0 41 30 -41 c17 -23 35 -42 40 -42 6 0 10 25 10 55 0 30 -4 55 -10 55 -5 0 -10 -17 -10 -37 l-1 -38 -30 38 c-17 20 -35 37 -40 37 -5 0 -9 -25 -9 -55z"/> <path d="M835 870 c3 -5 12 -7 20 -3 12 4 15 -5 15 -46 0 -28 5 -51 10 -51 6 0 10 23 10 51 0 41 3 50 15 45 8 -3 15 -1 15 4 0 6 -21 10 -46 10 -26 0 -43 -4 -39 -10z"/> <path d="M980 825 l0 -55 40 0 c22 0 40 5 40 10 0 6 -13 10 -30 10 -20 0 -30 5 -30 15 0 9 9 15 25 15 14 0 25 5 25 10 0 6 -11 10 -25 10 -16 0 -25 6 -25 16 0 13 7 15 30 11 17 -4 30 -2 30 3 0 6 -18 10 -40 10 l-40 0 0 -55z"/> <path d="M1116 831 c0 -28 3 -54 7 -58 4 -3 7 3 7 15 0 29 23 28 43 0 8 -13 18 -20 22 -16 4 4 2 15 -5 24 -11 12 -11 17 -1 23 7 5 11 19 9 32 -2 20 -9 24 -43 27 l-40 3 1 -50z m62 16 c3 -12 -3 -17 -22 -17 -25 0 -35 18 -19 34 12 12 38 2 41 -17z"/> <path d="M1260 825 c0 -34 4 -55 11 -55 8 0 9 14 5 43 l-6 42 30 -35 c16 -19 30 -38 30 -42 0 -5 4 -8 9 -8 5 0 11 25 13 55 2 38 -1 55 -9 55 -8 0 -10 -12 -7 -37 l5 -38 -33 38 c-18 20 -36 37 -40 37 -5 0 -8 -25 -8 -55z"/> <path d="M1431 828 c-12 -28 -18 -54 -15 -57 4 -3 9 0 11 7 3 6 20 12 38 12 18 0 35 -6 38 -12 2 -7 7 -10 11 -7 9 8 -36 109 -50 109 -6 0 -21 -23 -33 -52z"/> <path d="M1560 870 c0 -5 7 -7 15 -4 12 5 15 -4 15 -45 0 -28 5 -51 10 -51 6 0 10 23 10 51 0 41 3 50 15 46 8 -4 17 -2 20 3 4 6 -13 10 -39 10 -25 0 -46 -4 -46 -10z"/> <path d="M1700 825 c0 -30 5 -55 10 -55 6 0 10 25 10 55 0 30 -4 55 -10 55 -5 0 -10 -25 -10 -55z"/> <path d="M1950 823 c0 -31 3 -53 7 -49 4 4 6 24 5 44 l-3 37 30 -35 c17 -19 31 -38 31 -42 0 -5 5 -8 10 -8 6 0 10 25 10 55 0 30 -4 55 -10 55 -5 0 -10 -17 -10 -37 l0 -38 -27 38 c-14 20 -30 37 -35 37 -4 0 -8 -25 -8 -57z"/> <path d="M2120 830 c-13 -27 -20 -53 -16 -57 4 -4 12 0 17 9 9 17 42 15 67 -5 7 -5 15 -8 17 -5 8 8 -39 108 -51 108 -6 0 -21 -22 -34 -50z"/> <path d="M2260 825 l0 -55 40 0 c22 0 40 5 40 10 0 6 -13 10 -30 10 -29 0 -30 2 -30 45 0 25 -4 45 -10 45 -5 0 -10 -25 -10 -55z"/> <path d="M970 625 c0 -30 5 -55 10 -55 6 0 10 17 11 38 l0 37 16 -32 c9 -18 19 -33 23 -33 3 0 12 15 20 33 l14 32 3 -37 c6 -57 18 -45 18 17 0 62 -15 73 -35 25 -7 -16 -16 -30 -20 -30 -4 0 -13 14 -20 30 -21 50 -40 38 -40 -25z"/> <path d="M1145 625 c0 -34 4 -55 11 -55 7 0 11 20 10 55 -1 72 -21 72 -21 0z"/> <path d="M1224 625 c-1 -64 13 -75 18 -13 l3 42 29 -42 c16 -23 33 -42 37 -42 5 0 9 25 9 55 0 62 -17 75 -22 18 l-3 -38 -23 38 c-33 53 -47 48 -48 -18z"/> <path d="M1380 625 c0 -30 5 -55 10 -55 6 0 10 25 10 55 0 30 -4 55 -10 55 -5 0 -10 -25 -10 -55z"/> <path d="M1467 673 c-17 -16 -5 -42 23 -52 41 -14 40 -35 -1 -27 -22 4 -29 2 -26 -7 2 -6 19 -12 38 -12 28 0 35 4 37 23 3 18 -3 25 -28 33 -37 13 -34 35 4 31 18 -2 25 1 21 7 -7 12 -58 15 -68 4z"/> <path d="M1590 670 c0 -5 9 -10 20 -10 17 0 20 -7 20 -45 0 -26 5 -45 11 -45 8 0 9 15 5 45 -7 41 -5 45 13 45 12 0 21 5 21 10 0 6 -20 10 -45 10 -25 0 -45 -4 -45 -10z"/> <path d="M1739 623 c3 -32 7 -48 9 -35 2 12 9 22 16 22 8 0 20 -10 29 -22 8 -13 18 -20 22 -16 4 4 2 15 -5 24 -11 12 -11 17 -1 23 7 5 11 19 9 32 -2 20 -9 24 -43 27 l-40 3 4 -58z m65 28 c8 -13 -21 -34 -39 -27 -25 9 -18 36 9 36 14 0 27 -4 30 -9z"/> <path d="M1881 648 c13 -17 22 -42 21 -55 -1 -15 4 -23 14 -23 11 0 13 6 9 20 -5 14 2 32 20 55 16 22 21 35 13 35 -7 0 -20 -11 -29 -25 l-15 -26 -14 26 c-7 14 -20 25 -27 25 -11 0 -8 -9 8 -32z"/> </g> </svg> 